<mxfile host="Electron" modified="2024-04-28T22:01:51.815Z" agent="Mozilla/5.0 (Windows NT 10.0; Win64; x64) AppleWebKit/537.36 (KHTML, like Gecko) draw.io/24.2.5 Chrome/120.0.6099.109 Electron/28.1.0 Safari/537.36" etag="V0M0MJhmyI7B_SsjlAkf" version="24.2.5" type="device">
  <diagram name="Страница — 1" id="7QrQjih1VVQiuwpURtKK">
    <mxGraphModel dx="3680" dy="2860" grid="1" gridSize="10" guides="1" tooltips="1" connect="1" arrows="1" fold="1" page="1" pageScale="1" pageWidth="3300" pageHeight="2339" math="0" shadow="0">
      <root>
        <mxCell id="0" />
        <mxCell id="1" parent="0" />
        <mxCell id="r1CZrFXJnM-Kb8110FtD-2" value="Администратор&lt;div&gt;&lt;br&gt;&lt;/div&gt;" style="shape=umlActor;verticalLabelPosition=bottom;verticalAlign=top;html=1;outlineConnect=0;fontSize=40;fontStyle=0;strokeWidth=2;" parent="1" vertex="1">
          <mxGeometry x="1220" y="780" width="160" height="300" as="geometry" />
        </mxCell>
        <mxCell id="r1CZrFXJnM-Kb8110FtD-3" value="&lt;div&gt;Пользователь&lt;/div&gt;&lt;div&gt;&lt;br&gt;&lt;/div&gt;" style="shape=umlActor;verticalLabelPosition=bottom;verticalAlign=top;html=1;outlineConnect=0;fontSize=40;fontStyle=0;strokeWidth=2;" parent="1" vertex="1">
          <mxGeometry x="2150" y="670" width="160" height="300" as="geometry" />
        </mxCell>
        <mxCell id="r1CZrFXJnM-Kb8110FtD-4" value="&lt;div&gt;Организатор&lt;/div&gt;" style="shape=umlActor;verticalLabelPosition=bottom;verticalAlign=top;html=1;outlineConnect=0;fontSize=40;fontStyle=0;strokeWidth=2;" parent="1" vertex="1">
          <mxGeometry x="2150" y="1330" width="160" height="300" as="geometry" />
        </mxCell>
        <mxCell id="r1CZrFXJnM-Kb8110FtD-8" value="&lt;font style=&quot;font-size: 40px;&quot;&gt;Зарегестрировать учетную запись&lt;/font&gt;" style="ellipse;whiteSpace=wrap;html=1;strokeWidth=2;fontSize=40;" parent="1" vertex="1">
          <mxGeometry x="2310" y="430" width="460" height="160" as="geometry" />
        </mxCell>
        <mxCell id="r1CZrFXJnM-Kb8110FtD-9" value="&lt;font style=&quot;font-size: 40px;&quot;&gt;Войти в учетную запись&lt;/font&gt;" style="ellipse;whiteSpace=wrap;html=1;strokeWidth=2;fontSize=40;" parent="1" vertex="1">
          <mxGeometry x="1830" y="330" width="460" height="120" as="geometry" />
        </mxCell>
        <mxCell id="r1CZrFXJnM-Kb8110FtD-10" value="&lt;font style=&quot;font-size: 40px;&quot;&gt;Просмотреть мероприятия&lt;/font&gt;" style="ellipse;whiteSpace=wrap;html=1;strokeWidth=2;fontSize=40;" parent="1" vertex="1">
          <mxGeometry x="1580" y="550" width="460" height="160" as="geometry" />
        </mxCell>
        <mxCell id="r1CZrFXJnM-Kb8110FtD-12" value="" style="endArrow=none;html=1;rounded=0;exitX=0.5;exitY=1;exitDx=0;exitDy=0;strokeWidth=2;" parent="1" source="r1CZrFXJnM-Kb8110FtD-9" target="r1CZrFXJnM-Kb8110FtD-3" edge="1">
          <mxGeometry width="50" height="50" relative="1" as="geometry">
            <mxPoint x="2020" y="1160" as="sourcePoint" />
            <mxPoint x="2070" y="1110" as="targetPoint" />
          </mxGeometry>
        </mxCell>
        <mxCell id="r1CZrFXJnM-Kb8110FtD-13" value="" style="endArrow=none;html=1;rounded=0;exitX=0.5;exitY=1;exitDx=0;exitDy=0;strokeWidth=2;" parent="1" source="r1CZrFXJnM-Kb8110FtD-10" target="r1CZrFXJnM-Kb8110FtD-3" edge="1">
          <mxGeometry width="50" height="50" relative="1" as="geometry">
            <mxPoint x="2070" y="460" as="sourcePoint" />
            <mxPoint x="2240" y="830" as="targetPoint" />
          </mxGeometry>
        </mxCell>
        <mxCell id="r1CZrFXJnM-Kb8110FtD-14" value="" style="endArrow=none;html=1;rounded=0;exitX=0.5;exitY=1;exitDx=0;exitDy=0;strokeWidth=2;" parent="1" source="r1CZrFXJnM-Kb8110FtD-8" target="r1CZrFXJnM-Kb8110FtD-3" edge="1">
          <mxGeometry width="50" height="50" relative="1" as="geometry">
            <mxPoint x="1820" y="720" as="sourcePoint" />
            <mxPoint x="2250" y="840" as="targetPoint" />
          </mxGeometry>
        </mxCell>
        <mxCell id="r1CZrFXJnM-Kb8110FtD-15" value="Редактировать учетную запись" style="ellipse;whiteSpace=wrap;html=1;strokeWidth=2;fontSize=40;" parent="1" vertex="1">
          <mxGeometry x="2080" y="80" width="460" height="120" as="geometry" />
        </mxCell>
        <mxCell id="r1CZrFXJnM-Kb8110FtD-17" value="" style="endArrow=classic;html=1;rounded=0;exitX=0.5;exitY=1;exitDx=0;exitDy=0;entryX=0.5;entryY=0;entryDx=0;entryDy=0;strokeWidth=2;dashed=1;fontSize=120;" parent="1" source="r1CZrFXJnM-Kb8110FtD-15" target="r1CZrFXJnM-Kb8110FtD-9" edge="1">
          <mxGeometry relative="1" as="geometry">
            <mxPoint x="2000" y="1130" as="sourcePoint" />
            <mxPoint x="2100" y="1130" as="targetPoint" />
          </mxGeometry>
        </mxCell>
        <mxCell id="r1CZrFXJnM-Kb8110FtD-18" value="&lt;font style=&quot;font-size: 30px;&quot;&gt;&quot;extends&quot;&lt;/font&gt;" style="edgeLabel;resizable=0;html=1;;align=center;verticalAlign=middle;" parent="r1CZrFXJnM-Kb8110FtD-17" connectable="0" vertex="1">
          <mxGeometry relative="1" as="geometry" />
        </mxCell>
        <mxCell id="r1CZrFXJnM-Kb8110FtD-23" value="" style="endArrow=classic;html=1;rounded=0;exitX=0.5;exitY=1;exitDx=0;exitDy=0;entryX=0.5;entryY=0;entryDx=0;entryDy=0;strokeWidth=2;dashed=1;fontSize=120;" parent="1" source="r1CZrFXJnM-Kb8110FtD-15" target="r1CZrFXJnM-Kb8110FtD-8" edge="1">
          <mxGeometry relative="1" as="geometry">
            <mxPoint x="2320" y="210" as="sourcePoint" />
            <mxPoint x="2070" y="340" as="targetPoint" />
          </mxGeometry>
        </mxCell>
        <mxCell id="r1CZrFXJnM-Kb8110FtD-24" value="&lt;font style=&quot;font-size: 30px;&quot;&gt;&quot;extends&quot;&lt;/font&gt;" style="edgeLabel;resizable=0;html=1;;align=center;verticalAlign=middle;" parent="r1CZrFXJnM-Kb8110FtD-23" connectable="0" vertex="1">
          <mxGeometry relative="1" as="geometry" />
        </mxCell>
        <mxCell id="r1CZrFXJnM-Kb8110FtD-25" value="" style="endArrow=block;html=1;rounded=0;exitX=0.5;exitY=0;exitDx=0;exitDy=0;exitPerimeter=0;endFill=0;strokeWidth=2;" parent="1" source="r1CZrFXJnM-Kb8110FtD-4" target="r1CZrFXJnM-Kb8110FtD-3" edge="1">
          <mxGeometry width="50" height="50" relative="1" as="geometry">
            <mxPoint x="1750" y="1010" as="sourcePoint" />
            <mxPoint x="1800" y="960" as="targetPoint" />
          </mxGeometry>
        </mxCell>
        <mxCell id="r1CZrFXJnM-Kb8110FtD-26" value="&lt;font style=&quot;font-size: 40px;&quot;&gt;Добавление мероприятия&lt;/font&gt;" style="ellipse;whiteSpace=wrap;html=1;strokeWidth=2;fontSize=40;" parent="1" vertex="1">
          <mxGeometry x="1660" y="1420" width="380" height="130" as="geometry" />
        </mxCell>
        <mxCell id="r1CZrFXJnM-Kb8110FtD-27" value="&lt;font style=&quot;font-size: 40px;&quot;&gt;Утвердить мероприятие&lt;/font&gt;" style="ellipse;whiteSpace=wrap;html=1;strokeWidth=2;fontSize=40;" parent="1" vertex="1">
          <mxGeometry x="800" y="640" width="340" height="120" as="geometry" />
        </mxCell>
        <mxCell id="r1CZrFXJnM-Kb8110FtD-29" value="" style="endArrow=none;html=1;rounded=0;exitX=0.5;exitY=1;exitDx=0;exitDy=0;strokeWidth=2;" parent="1" source="r1CZrFXJnM-Kb8110FtD-27" target="r1CZrFXJnM-Kb8110FtD-2" edge="1">
          <mxGeometry width="50" height="50" relative="1" as="geometry">
            <mxPoint x="590" y="960" as="sourcePoint" />
            <mxPoint x="930" y="1049" as="targetPoint" />
          </mxGeometry>
        </mxCell>
        <mxCell id="r1CZrFXJnM-Kb8110FtD-30" value="" style="endArrow=block;html=1;rounded=0;endFill=0;strokeWidth=2;" parent="1" source="r1CZrFXJnM-Kb8110FtD-2" target="r1CZrFXJnM-Kb8110FtD-3" edge="1">
          <mxGeometry width="50" height="50" relative="1" as="geometry">
            <mxPoint x="1670" y="1170" as="sourcePoint" />
            <mxPoint x="1670" y="810" as="targetPoint" />
          </mxGeometry>
        </mxCell>
        <mxCell id="r1CZrFXJnM-Kb8110FtD-31" value="&lt;font style=&quot;font-size: 40px;&quot;&gt;Назвать мероприяти&lt;span style=&quot;color: rgba(0, 0, 0, 0); font-family: monospace; font-size: 0px; text-align: start; text-wrap: nowrap;&quot;&gt;%3CmxGraphModel%3E%3Croot%3E%3CmxCell%20id%3D%220%22%2F%3E%3CmxCell%20id%3D%221%22%20parent%3D%220%22%2F%3E%3CmxCell%20id%3D%222%22%20value%3D%22%26lt%3Bfont%20style%3D%26quot%3Bfont-size%3A%2040px%3B%26quot%3B%26gt%3B%D0%94%D0%BE%D0%B1%D0%B0%D0%B2%D0%BB%D0%B5%D0%BD%D0%B8%D0%B5%20%D0%BC%D0%B5%D1%80%D0%BE%D0%BF%D1%80%D0%B8%D1%8F%D1%82%D0%B8%D1%8F%26lt%3B%2Ffont%26gt%3B%22%20style%3D%22ellipse%3BwhiteSpace%3Dwrap%3Bhtml%3D1%3BstrokeWidth%3D2%3BfontSize%3D40%3B%22%20vertex%3D%221%22%20parent%3D%221%22%3E%3CmxGeometry%20x%3D%221660%22%20y%3D%221420%22%20width%3D%22380%22%20height%3D%22130%22%20as%3D%22geometry%22%2F%3E%3C%2FmxCell%3E%3C%2Froot%3E%3C%2FmxGraphModel%3E&lt;/span&gt;я&lt;/font&gt;&lt;span style=&quot;color: rgba(0, 0, 0, 0); font-family: monospace; font-size: 0px; text-align: start; text-wrap: nowrap;&quot;&gt;%3CmxGraphModel%3E%3Croot%3E%3CmxCell%20id%3D%220%22%2F%3E%3CmxCell%20id%3D%221%22%20parent%3D%220%22%2F%3E%3CmxCell%20id%3D%222%22%20value%3D%22%26lt%3Bfont%20style%3D%26quot%3Bfont-size%3A%2040px%3B%26quot%3B%26gt%3B%D0%94%D0%BE%D0%B1%D0%B0%D0%B2%D0%BB%D0%B5%D0%BD%D0%B8%D0%B5%20%D0%BC%D0%B5%D1%80%D0%BE%D0%BF%D1%80%D0%B8%D1%8F%D1%82%D0%B8%D1%8F%26lt%3B%2Ffont%26gt%3B%22%20style%3D%22ellipse%3BwhiteSpace%3Dwrap%3Bhtml%3D1%3BstrokeWidth%3D2%3BfontSize%3D40%3B%22%20vertex%3D%221%22%20parent%3D%221%22%3E%3CmxGeometry%20x%3D%221660%22%20y%3D%221420%22%20width%3D%22380%22%20height%3D%22130%22%20as%3D%22geometry%22%2F%3E%3C%2FmxCell%3E%3C%2Froot%3E%3C%2FmxGraphModel%3E&lt;/span&gt;&lt;span style=&quot;color: rgba(0, 0, 0, 0); font-family: monospace; font-size: 0px; text-align: start; text-wrap: nowrap;&quot;&gt;%3CmxGraphModel%3E%3Croot%3E%3CmxCell%20id%3D%220%22%2F%3E%3CmxCell%20id%3D%221%22%20parent%3D%220%22%2F%3E%3CmxCell%20id%3D%222%22%20value%3D%22%26lt%3Bfont%20style%3D%26quot%3Bfont-size%3A%2040px%3B%26quot%3B%26gt%3B%D0%94%D0%BE%D0%B1%D0%B0%D0%B2%D0%BB%D0%B5%D0%BD%D0%B8%D0%B5%20%D0%BC%D0%B5%D1%80%D0%BE%D0%BF%D1%80%D0%B8%D1%8F%D1%82%D0%B8%D1%8F%26lt%3B%2Ffont%26gt%3B%22%20style%3D%22ellipse%3BwhiteSpace%3Dwrap%3Bhtml%3D1%3BstrokeWidth%3D2%3BfontSize%3D40%3B%22%20vertex%3D%221%22%20parent%3D%221%22%3E%3CmxGeometry%20x%3D%221660%22%20y%3D%221420%22%20width%3D%22380%22%20height%3D%22130%22%20as%3D%22geometry%22%2F%3E%3C%2FmxCell%3E%3C%2Froot%3E%3C%2FmxGraphModel%3E&lt;/span&gt;" style="ellipse;whiteSpace=wrap;html=1;strokeWidth=2;fontSize=40;" parent="1" vertex="1">
          <mxGeometry x="1150" y="1340" width="380" height="130" as="geometry" />
        </mxCell>
        <mxCell id="r1CZrFXJnM-Kb8110FtD-32" value="Назначить дату и место проведения&lt;span style=&quot;color: rgba(0, 0, 0, 0); font-family: monospace; font-size: 0px; text-align: start; text-wrap: nowrap;&quot;&gt;%3CmxGraphModel%3E%3Croot%3E%3CmxCell%20id%3D%220%22%2F%3E%3CmxCell%20id%3D%221%22%20parent%3D%220%22%2F%3E%3CmxCell%20id%3D%222%22%20value%3D%22%26lt%3Bfont%20style%3D%26quot%3Bfont-size%3A%2040px%3B%26quot%3B%26gt%3B%D0%9D%D0%B0%D0%B7%D0%B2%D0%B0%D0%BD%D0%B8%D0%B5%20%D0%BC%D0%B5%D1%80%D0%BE%D0%BF%D1%80%D0%B8%D1%8F%D1%82%D0%B8%26lt%3Bspan%20style%3D%26quot%3Bcolor%3A%20rgba(0%2C%200%2C%200%2C%200)%3B%20font-family%3A%20monospace%3B%20font-size%3A%200px%3B%20text-align%3A%20start%3B%20text-wrap%3A%20nowrap%3B%26quot%3B%26gt%3B%253CmxGraphModel%253E%253Croot%253E%253CmxCell%2520id%253D%25220%2522%252F%253E%253CmxCell%2520id%253D%25221%2522%2520parent%253D%25220%2522%252F%253E%253CmxCell%2520id%253D%25222%2522%2520value%253D%2522%2526lt%253Bfont%2520style%253D%2526quot%253Bfont-size%253A%252040px%253B%2526quot%253B%2526gt%253B%25D0%2594%25D0%25BE%25D0%25B1%25D0%25B0%25D0%25B2%25D0%25BB%25D0%25B5%25D0%25BD%25D0%25B8%25D0%25B5%2520%25D0%25BC%25D0%25B5%25D1%2580%25D0%25BE%25D0%25BF%25D1%2580%25D0%25B8%25D1%258F%25D1%2582%25D0%25B8%25D1%258F%2526lt%253B%252Ffont%2526gt%253B%2522%2520style%253D%2522ellipse%253BwhiteSpace%253Dwrap%253Bhtml%253D1%253BstrokeWidth%253D2%253BfontSize%253D40%253B%2522%2520vertex%253D%25221%2522%2520parent%253D%25221%2522%253E%253CmxGeometry%2520x%253D%25221660%2522%2520y%253D%25221420%2522%2520width%253D%2522380%2522%2520height%253D%2522130%2522%2520as%253D%2522geometry%2522%252F%253E%253C%252FmxCell%253E%253C%252Froot%253E%253C%252FmxGraphModel%253E%26lt%3B%2Fspan%26gt%3B%D1%8F%26lt%3B%2Ffont%26gt%3B%26lt%3Bspan%20style%3D%26quot%3Bcolor%3A%20rgba(0%2C%200%2C%200%2C%200)%3B%20font-family%3A%20monospace%3B%20font-size%3A%200px%3B%20text-align%3A%20start%3B%20text-wrap%3A%20nowrap%3B%26quot%3B%26gt%3B%253CmxGraphModel%253E%253Croot%253E%253CmxCell%2520id%253D%25220%2522%252F%253E%253CmxCell%2520id%253D%25221%2522%2520parent%253D%25220%2522%252F%253E%253CmxCell%2520id%253D%25222%2522%2520value%253D%2522%2526lt%253Bfont%2520style%253D%2526quot%253Bfont-size%253A%252040px%253B%2526quot%253B%2526gt%253B%25D0%2594%25D0%25BE%25D0%25B1%25D0%25B0%25D0%25B2%25D0%25BB%25D0%25B5%25D0%25BD%25D0%25B8%25D0%25B5%2520%25D0%25BC%25D0%25B5%25D1%2580%25D0%25BE%25D0%25BF%25D1%2580%25D0%25B8%25D1%258F%25D1%2582%25D0%25B8%25D1%258F%2526lt%253B%252Ffont%2526gt%253B%2522%2520style%253D%2522ellipse%253BwhiteSpace%253Dwrap%253Bhtml%253D1%253BstrokeWidth%253D2%253BfontSize%253D40%253B%2522%2520vertex%253D%25221%2522%2520parent%253D%25221%2522%253E%253CmxGeometry%2520x%253D%25221660%2522%2520y%253D%25221420%2522%2520width%253D%2522380%2522%2520height%253D%2522130%2522%2520as%253D%2522geometry%2522%252F%253E%253C%252FmxCell%253E%253C%252Froot%253E%253C%252FmxGraphModel%253E%26lt%3B%2Fspan%26gt%3B%26lt%3Bspan%20style%3D%26quot%3Bcolor%3A%20rgba(0%2C%200%2C%200%2C%200)%3B%20font-family%3A%20monospace%3B%20font-size%3A%200px%3B%20text-align%3A%20start%3B%20text-wrap%3A%20nowrap%3B%26quot%3B%26gt%3B%253CmxGraphModel%253E%253Croot%253E%253CmxCell%2520id%253D%25220%2522%252F%253E%253CmxCell%2520id%253D%25221%2522%2520parent%253D%25220%2522%252F%253E%253CmxCell%2520id%253D%25222%2522%2520value%253D%2522%2526lt%253Bfont%2520style%253D%2526quot%253Bfont-size%253A%252040px%253B%2526quot%253B%2526gt%253B%25D0%2594%25D0%25BE%25D0%25B1%25D0%25B0%25D0%25B2%25D0%25BB%25D0%25B5%25D0%25BD%25D0%25B8%25D0%25B5%2520%25D0%25BC%25D0%25B5%25D1%2580%25D0%25BE%25D0%25BF%25D1%2580%25D0%25B8%25D1%258F%25D1%2582%25D0%25B8%25D1%258F%2526lt%253B%252Ffont%2526gt%253B%2522%2520style%253D%2522ellipse%253BwhiteSpace%253Dwrap%253Bhtml%253D1%253BstrokeWidth%253D2%253BfontSize%253D40%253B%2522%2520vertex%253D%25221%2522%2520parent%253D%25221%2522%253E%253CmxGeometry%2520x%253D%25221660%2522%2520y%253D%25221420%2522%2520width%253D%2522380%2522%2520height%253D%2522130%2522%2520as%253D%2522geometry%2522%252F%253E%253C%252FmxCell%253E%253C%252Froot%253E%253C%252FmxGraphModel%253E%26lt%3B%2Fspan%26gt%3B%22%20style%3D%22ellipse%3BwhiteSpace%3Dwrap%3Bhtml%3D1%3BstrokeWidth%3D2%3BfontSize%3D40%3B%22%20vertex%3D%221%22%20parent%3D%221%22%3E%3CmxGeometry%20x%3D%221150%22%20y%3D%221340%22%20width%3D%22380%22%20height%3D%22130%22%20as%3D%22geometry%22%2F%3E%3C%2FmxCell%3E%3C%2Froot%3E%3C%2FmxGraphModel%3E&lt;/span&gt;&lt;span style=&quot;color: rgba(0, 0, 0, 0); font-family: monospace; font-size: 0px; text-align: start; text-wrap: nowrap;&quot;&gt;%3CmxGraphModel%3E%3Croot%3E%3CmxCell%20id%3D%220%22%2F%3E%3CmxCell%20id%3D%221%22%20parent%3D%220%22%2F%3E%3CmxCell%20id%3D%222%22%20value%3D%22%26lt%3Bfont%20style%3D%26quot%3Bfont-size%3A%2040px%3B%26quot%3B%26gt%3B%D0%9D%D0%B0%D0%B7%D0%B2%D0%B0%D0%BD%D0%B8%D0%B5%20%D0%BC%D0%B5%D1%80%D0%BE%D0%BF%D1%80%D0%B8%D1%8F%D1%82%D0%B8%26lt%3Bspan%20style%3D%26quot%3Bcolor%3A%20rgba(0%2C%200%2C%200%2C%200)%3B%20font-family%3A%20monospace%3B%20font-size%3A%200px%3B%20text-align%3A%20start%3B%20text-wrap%3A%20nowrap%3B%26quot%3B%26gt%3B%253CmxGraphModel%253E%253Croot%253E%253CmxCell%2520id%253D%25220%2522%252F%253E%253CmxCell%2520id%253D%25221%2522%2520parent%253D%25220%2522%252F%253E%253CmxCell%2520id%253D%25222%2522%2520value%253D%2522%2526lt%253Bfont%2520style%253D%2526quot%253Bfont-size%253A%252040px%253B%2526quot%253B%2526gt%253B%25D0%2594%25D0%25BE%25D0%25B1%25D0%25B0%25D0%25B2%25D0%25BB%25D0%25B5%25D0%25BD%25D0%25B8%25D0%25B5%2520%25D0%25BC%25D0%25B5%25D1%2580%25D0%25BE%25D0%25BF%25D1%2580%25D0%25B8%25D1%258F%25D1%2582%25D0%25B8%25D1%258F%2526lt%253B%252Ffont%2526gt%253B%2522%2520style%253D%2522ellipse%253BwhiteSpace%253Dwrap%253Bhtml%253D1%253BstrokeWidth%253D2%253BfontSize%253D40%253B%2522%2520vertex%253D%25221%2522%2520parent%253D%25221%2522%253E%253CmxGeometry%2520x%253D%25221660%2522%2520y%253D%25221420%2522%2520width%253D%2522380%2522%2520height%253D%2522130%2522%2520as%253D%2522geometry%2522%252F%253E%253C%252FmxCell%253E%253C%252Froot%253E%253C%252FmxGraphModel%253E%26lt%3B%2Fspan%26gt%3B%D1%8F%26lt%3B%2Ffont%26gt%3B%26lt%3Bspan%20style%3D%26quot%3Bcolor%3A%20rgba(0%2C%200%2C%200%2C%200)%3B%20font-family%3A%20monospace%3B%20font-size%3A%200px%3B%20text-align%3A%20start%3B%20text-wrap%3A%20nowrap%3B%26quot%3B%26gt%3B%253CmxGraphModel%253E%253Croot%253E%253CmxCell%2520id%253D%25220%2522%252F%253E%253CmxCell%2520id%253D%25221%2522%2520parent%253D%25220%2522%252F%253E%253CmxCell%2520id%253D%25222%2522%2520value%253D%2522%2526lt%253Bfont%2520style%253D%2526quot%253Bfont-size%253A%252040px%253B%2526quot%253B%2526gt%253B%25D0%2594%25D0%25BE%25D0%25B1%25D0%25B0%25D0%25B2%25D0%25BB%25D0%25B5%25D0%25BD%25D0%25B8%25D0%25B5%2520%25D0%25BC%25D0%25B5%25D1%2580%25D0%25BE%25D0%25BF%25D1%2580%25D0%25B8%25D1%258F%25D1%2582%25D0%25B8%25D1%258F%2526lt%253B%252Ffont%2526gt%253B%2522%2520style%253D%2522ellipse%253BwhiteSpace%253Dwrap%253Bhtml%253D1%253BstrokeWidth%253D2%253BfontSize%253D40%253B%2522%2520vertex%253D%25221%2522%2520parent%253D%25221%2522%253E%253CmxGeometry%2520x%253D%25221660%2522%2520y%253D%25221420%2522%2520width%253D%2522380%2522%2520height%253D%2522130%2522%2520as%253D%2522geometry%2522%252F%253E%253C%252FmxCell%253E%253C%252Froot%253E%253C%252FmxGraphModel%253E%26lt%3B%2Fspan%26gt%3B%26lt%3Bspan%20style%3D%26quot%3Bcolor%3A%20rgba(0%2C%200%2C%200%2C%200)%3B%20font-family%3A%20monospace%3B%20font-size%3A%200px%3B%20text-align%3A%20start%3B%20text-wrap%3A%20nowrap%3B%26quot%3B%26gt%3B%253CmxGraphModel%253E%253Croot%253E%253CmxCell%2520id%253D%25220%2522%252F%253E%253CmxCell%2520id%253D%25221%2522%2520parent%253D%25220%2522%252F%253E%253CmxCell%2520id%253D%25222%2522%2520value%253D%2522%2526lt%253Bfont%2520style%253D%2526quot%253Bfont-size%253A%252040px%253B%2526quot%253B%2526gt%253B%25D0%2594%25D0%25BE%25D0%25B1%25D0%25B0%25D0%25B2%25D0%25BB%25D0%25B5%25D0%25BD%25D0%25B8%25D0%25B5%2520%25D0%25BC%25D0%25B5%25D1%2580%25D0%25BE%25D0%25BF%25D1%2580%25D0%25B8%25D1%258F%25D1%2582%25D0%25B8%25D1%258F%2526lt%253B%252Ffont%2526gt%253B%2522%2520style%253D%2522ellipse%253BwhiteSpace%253Dwrap%253Bhtml%253D1%253BstrokeWidth%253D2%253BfontSize%253D40%253B%2522%2520vertex%253D%25221%2522%2520parent%253D%25221%2522%253E%253CmxGeometry%2520x%253D%25221660%2522%2520y%253D%25221420%2522%2520width%253D%2522380%2522%2520height%253D%2522130%2522%2520as%253D%2522geometry%2522%252F%253E%253C%252FmxCell%253E%253C%252Froot%253E%253C%252FmxGraphModel%253E%26lt%3B%2Fspan%26gt%3B%22%20style%3D%22ellipse%3BwhiteSpace%3Dwrap%3Bhtml%3D1%3BstrokeWidth%3D2%3BfontSize%3D40%3B%22%20vertex%3D%221%22%20parent%3D%221%22%3E%3CmxGeometry%20x%3D%221150%22%20y%3D%221340%22%20width%3D%22380%22%20height%3D%22130%22%20as%3D%22geometry%22%2F%3E%3C%2FmxCell%3E%3C%2Froot%3E%3C%2FmxGraphModel%3E&lt;/span&gt;" style="ellipse;whiteSpace=wrap;html=1;strokeWidth=2;fontSize=40;" parent="1" vertex="1">
          <mxGeometry x="1190" y="1580" width="380" height="130" as="geometry" />
        </mxCell>
        <mxCell id="r1CZrFXJnM-Kb8110FtD-33" value="Предоставить общую информацию о мероприятии" style="ellipse;whiteSpace=wrap;html=1;strokeWidth=2;fontSize=40;" parent="1" vertex="1">
          <mxGeometry x="1590" y="1730" width="410" height="170" as="geometry" />
        </mxCell>
        <mxCell id="r1CZrFXJnM-Kb8110FtD-34" value="" style="endArrow=classic;html=1;rounded=0;exitX=0;exitY=0.5;exitDx=0;exitDy=0;entryX=1;entryY=0.5;entryDx=0;entryDy=0;strokeWidth=2;dashed=1;fontSize=120;" parent="1" source="r1CZrFXJnM-Kb8110FtD-26" target="r1CZrFXJnM-Kb8110FtD-31" edge="1">
          <mxGeometry relative="1" as="geometry">
            <mxPoint x="1910" y="1180" as="sourcePoint" />
            <mxPoint x="1660" y="1310" as="targetPoint" />
          </mxGeometry>
        </mxCell>
        <mxCell id="r1CZrFXJnM-Kb8110FtD-35" value="&lt;font style=&quot;font-size: 30px;&quot;&gt;&quot;include&quot;&lt;/font&gt;" style="edgeLabel;resizable=0;html=1;;align=center;verticalAlign=middle;" parent="r1CZrFXJnM-Kb8110FtD-34" connectable="0" vertex="1">
          <mxGeometry relative="1" as="geometry" />
        </mxCell>
        <mxCell id="r1CZrFXJnM-Kb8110FtD-37" value="" style="endArrow=classic;html=1;rounded=0;entryX=0.732;entryY=0.049;entryDx=0;entryDy=0;strokeWidth=2;dashed=1;fontSize=120;entryPerimeter=0;" parent="1" source="r1CZrFXJnM-Kb8110FtD-26" target="r1CZrFXJnM-Kb8110FtD-32" edge="1">
          <mxGeometry relative="1" as="geometry">
            <mxPoint x="1670" y="1600" as="sourcePoint" />
            <mxPoint x="1540" y="1520" as="targetPoint" />
          </mxGeometry>
        </mxCell>
        <mxCell id="r1CZrFXJnM-Kb8110FtD-38" value="&lt;font style=&quot;font-size: 30px;&quot;&gt;&quot;include&quot;&lt;/font&gt;" style="edgeLabel;resizable=0;html=1;;align=center;verticalAlign=middle;" parent="r1CZrFXJnM-Kb8110FtD-37" connectable="0" vertex="1">
          <mxGeometry relative="1" as="geometry" />
        </mxCell>
        <mxCell id="r1CZrFXJnM-Kb8110FtD-40" value="" style="endArrow=classic;html=1;rounded=0;entryX=0.5;entryY=0;entryDx=0;entryDy=0;strokeWidth=2;dashed=1;fontSize=120;exitX=0.477;exitY=1.021;exitDx=0;exitDy=0;exitPerimeter=0;" parent="1" source="r1CZrFXJnM-Kb8110FtD-26" target="r1CZrFXJnM-Kb8110FtD-33" edge="1">
          <mxGeometry relative="1" as="geometry">
            <mxPoint x="1801" y="1610" as="sourcePoint" />
            <mxPoint x="1570" y="1671" as="targetPoint" />
          </mxGeometry>
        </mxCell>
        <mxCell id="r1CZrFXJnM-Kb8110FtD-41" value="&lt;font style=&quot;font-size: 30px;&quot;&gt;&quot;include&quot;&lt;/font&gt;" style="edgeLabel;resizable=0;html=1;;align=center;verticalAlign=middle;" parent="r1CZrFXJnM-Kb8110FtD-40" connectable="0" vertex="1">
          <mxGeometry relative="1" as="geometry" />
        </mxCell>
        <mxCell id="r1CZrFXJnM-Kb8110FtD-42" value="" style="endArrow=none;html=1;rounded=0;strokeWidth=2;" parent="1" source="r1CZrFXJnM-Kb8110FtD-26" target="r1CZrFXJnM-Kb8110FtD-4" edge="1">
          <mxGeometry width="50" height="50" relative="1" as="geometry">
            <mxPoint x="1820" y="1280" as="sourcePoint" />
            <mxPoint x="2160" y="1369" as="targetPoint" />
          </mxGeometry>
        </mxCell>
        <mxCell id="r1CZrFXJnM-Kb8110FtD-43" value="&lt;blockquote style=&quot;margin: 0 0 0 40px; border: none; padding: 0px;&quot;&gt;Оставить отзыв&lt;/blockquote&gt;" style="ellipse;whiteSpace=wrap;html=1;strokeWidth=2;fontSize=40;" parent="1" vertex="1">
          <mxGeometry x="2460" y="770" width="310" height="130" as="geometry" />
        </mxCell>
        <mxCell id="r1CZrFXJnM-Kb8110FtD-44" value="&lt;blockquote style=&quot;margin: 0 0 0 40px; border: none; padding: 0px;&quot;&gt;Прикрепить фотографию&lt;/blockquote&gt;" style="ellipse;whiteSpace=wrap;html=1;strokeWidth=2;fontSize=40;" parent="1" vertex="1">
          <mxGeometry x="2460" y="1040" width="310" height="130" as="geometry" />
        </mxCell>
        <mxCell id="r1CZrFXJnM-Kb8110FtD-45" value="" style="endArrow=classic;html=1;rounded=0;exitX=0.5;exitY=0;exitDx=0;exitDy=0;entryX=0.5;entryY=1;entryDx=0;entryDy=0;strokeWidth=2;dashed=1;fontSize=120;" parent="1" source="r1CZrFXJnM-Kb8110FtD-44" target="r1CZrFXJnM-Kb8110FtD-43" edge="1">
          <mxGeometry relative="1" as="geometry">
            <mxPoint x="2320" y="210" as="sourcePoint" />
            <mxPoint x="2550" y="440" as="targetPoint" />
          </mxGeometry>
        </mxCell>
        <mxCell id="r1CZrFXJnM-Kb8110FtD-46" value="&lt;font style=&quot;font-size: 30px;&quot;&gt;&quot;extends&quot;&lt;/font&gt;" style="edgeLabel;resizable=0;html=1;;align=center;verticalAlign=middle;" parent="r1CZrFXJnM-Kb8110FtD-45" connectable="0" vertex="1">
          <mxGeometry relative="1" as="geometry" />
        </mxCell>
        <mxCell id="r1CZrFXJnM-Kb8110FtD-47" value="&lt;blockquote style=&quot;margin: 0 0 0 40px; border: none; padding: 0px;&quot;&gt;Оставить количество звезд&lt;/blockquote&gt;" style="ellipse;whiteSpace=wrap;html=1;strokeWidth=2;fontSize=40;" parent="1" vertex="1">
          <mxGeometry x="2840" y="865" width="310" height="130" as="geometry" />
        </mxCell>
        <mxCell id="r1CZrFXJnM-Kb8110FtD-49" value="" style="endArrow=classic;html=1;rounded=0;strokeWidth=2;dashed=1;fontSize=120;" parent="1" source="r1CZrFXJnM-Kb8110FtD-47" target="r1CZrFXJnM-Kb8110FtD-43" edge="1">
          <mxGeometry relative="1" as="geometry">
            <mxPoint x="2625" y="1050" as="sourcePoint" />
            <mxPoint x="2625" y="910" as="targetPoint" />
          </mxGeometry>
        </mxCell>
        <mxCell id="r1CZrFXJnM-Kb8110FtD-50" value="&lt;font style=&quot;font-size: 30px;&quot;&gt;&quot;extends&quot;&lt;/font&gt;" style="edgeLabel;resizable=0;html=1;;align=center;verticalAlign=middle;" parent="r1CZrFXJnM-Kb8110FtD-49" connectable="0" vertex="1">
          <mxGeometry relative="1" as="geometry" />
        </mxCell>
        <mxCell id="r1CZrFXJnM-Kb8110FtD-51" value="" style="endArrow=none;html=1;rounded=0;strokeWidth=2;" parent="1" source="r1CZrFXJnM-Kb8110FtD-43" target="r1CZrFXJnM-Kb8110FtD-3" edge="1">
          <mxGeometry width="50" height="50" relative="1" as="geometry">
            <mxPoint x="2550" y="600" as="sourcePoint" />
            <mxPoint x="2320" y="771" as="targetPoint" />
          </mxGeometry>
        </mxCell>
      </root>
    </mxGraphModel>
  </diagram>
</mxfile>
